<svg xmlns:dc="http://purl.org/dc/elements/1.1/" xmlns:cc="http://creativecommons.org/ns#" xmlns:rdf="http://www.w3.org/1999/02/22-rdf-syntax-ns#" xmlns:svg="http://www.w3.org/2000/svg" xmlns="http://www.w3.org/2000/svg" xmlns:sodipodi="http://sodipodi.sourceforge.net/DTD/sodipodi-0.dtd" xmlns:inkscape="http://www.inkscape.org/namespaces/inkscape" version="1.1" x="0px" y="0px" viewBox="0 0 100.10149 92.820229"><g transform="translate(-34.75353,-974.3098)"><path style="color:#000000;text-indent:0;text-decoration-line:none;text-transform:none;direction:ltr;block-progression:tb;baseline-shift:baseline;enable-background:accumulate;" d="m 59.745624,985.89007 -2.765695,3.46531 -2.820439,3.53686 -0.499601,0.49105 0.366687,3.17148 6.407194,0.64171 4.191947,-0.36364 -1.426243,-2.67685 -1.744355,-4.17269 -1.709504,-4.09316 z" display="inline" overflow="visible" visibility="visible" fill="#000000" fill-opacity="1" fill-rule="nonzero" stroke="none" marker="none"></path><path style="color:#000000;text-indent:0;text-decoration-line:none;text-transform:none;direction:ltr;block-progression:tb;baseline-shift:baseline;enable-background:accumulate;" d="m 65.217555,992.20417 -1.609658,2.04073 -1.641522,2.08287 -2.034551,0.19952 4.155181,-0.0636 2.084368,0.0877 -0.234517,-0.20303 0.85289,-0.13907 -0.583567,-1.60213 -0.988312,-2.40516 z" display="inline" overflow="visible" visibility="visible" fill="#000000" fill-opacity="1" fill-rule="nonzero" stroke="none" marker="none"></path><path style="color:#000000;text-indent:0;text-decoration-line:none;text-transform:none;direction:ltr;block-progression:tb;baseline-shift:baseline;enable-background:accumulate;" d="m 54.845064,984.92104 c -1.122839,-0.15874 -2.418298,0.50556 -2.613236,1.88442 -0.194943,1.37889 0.866041,2.37311 1.988881,2.53185 1.122838,0.15874 2.420814,-0.50197 2.615756,-1.88086 0.194938,-1.37886 -0.868563,-2.37666 -1.991401,-2.53541 z" display="inline" overflow="visible" visibility="visible" fill="#000000" fill-opacity="1" fill-rule="nonzero" stroke="none" marker="none"></path><path style="color:#000000;text-indent:0;text-decoration-line:none;text-transform:none;direction:ltr;block-progression:tb;baseline-shift:baseline;enable-background:accumulate;" d="m 38.731374,986.23666 a 0.31362099,0.31362099 0 0 0 0.169145,0.604 l 10.722267,-1.78934 a 0.31180817,0.31180817 0 1 0 -0.10265,-0.61511 l -10.722264,1.78935 a 0.30863841,0.30863841 0 0 0 -0.0665,0.0111 z" display="inline" overflow="visible" visibility="visible" fill="#000000" fill-opacity="1" stroke="none" marker="none"></path><path style="color:#000000;text-indent:0;text-decoration-line:none;text-transform:none;direction:ltr;block-progression:tb;baseline-shift:baseline;enable-background:accumulate;" d="m 39.078157,988.31464 a 0.31362269,0.31362269 0 1 0 0.169141,0.60401 l 10.722264,-1.78935 a 0.31180463,0.31180463 0 0 0 -0.10265,-0.6151 l -10.722264,1.78935 a 0.30863841,0.30863841 0 0 0 -0.06649,0.0111 z" display="inline" overflow="visible" visibility="visible" fill="#000000" fill-opacity="1" stroke="none" marker="none"></path><path style="color:#000000;text-indent:0;text-decoration-line:none;text-transform:none;direction:ltr;block-progression:tb;baseline-shift:baseline;enable-background:accumulate;" d="m 39.424933,990.39263 a 0.30863841,0.30863841 0 0 0 0.166364,0.58735 l 10.722262,-1.78934 a 0.30863841,0.30863841 0 1 0 -0.09987,-0.59846 l -10.722265,1.78935 a 0.30863841,0.30863841 0 0 0 -0.06649,0.0111 z" display="inline" overflow="visible" visibility="visible" fill="#000000" fill-opacity="1" stroke="none" marker="none"></path><path style="color:#000000;text-indent:0;text-decoration-line:none;text-transform:none;direction:ltr;block-progression:tb;baseline-shift:baseline;enable-background:accumulate;" d="m 39.73845,992.47611 a 0.30863841,0.30863841 0 0 0 0.199614,0.5818 l 10.722264,-1.78935 a 0.30863841,0.30863841 0 1 0 -0.09987,-0.59845 l -10.722264,1.78935 a 0.30863841,0.30863841 0 0 0 -0.09975,0.0166 z" display="inline" overflow="visible" visibility="visible" fill="#000000" fill-opacity="1" stroke="none" marker="none"></path><path style="color:#000000;text-indent:0;text-decoration-line:none;text-transform:none;direction:ltr;block-progression:tb;baseline-shift:baseline;enable-background:accumulate;" d="m 40.085222,994.55404 a 0.30863841,0.30863841 0 0 0 0.199613,0.58181 l 6.981937,-1.16516 a 0.30863841,0.30863841 0 1 0 -0.09987,-0.59845 l -6.981942,1.16516 a 0.30863841,0.30863841 0 0 0 -0.09974,0.0166 z" display="inline" overflow="visible" visibility="visible" fill="#000000" fill-opacity="1" stroke="none" marker="none"></path><path style="color:#000000;text-indent:0;text-decoration-line:none;text-transform:none;direction:ltr;block-progression:tb;baseline-shift:baseline;enable-background:accumulate;" d="m 119.56578,985.03294 a 0.31362101,0.31362101 0 0 0 -0.14391,0.61051 l 10.25118,3.61692 a 0.3118053,0.3118053 0 0 0 0.20749,-0.58808 l -10.25118,-3.61691 a 0.30863841,0.30863841 0 0 0 -0.0636,-0.0224 z" display="inline" overflow="visible" visibility="visible" fill="#000000" fill-opacity="1" stroke="none" marker="none"></path><path style="color:#000000;text-indent:0;text-decoration-line:none;text-transform:none;direction:ltr;block-progression:tb;baseline-shift:baseline;enable-background:accumulate;" d="m 118.86483,987.01963 a 0.31362216,0.31362216 0 1 0 -0.14392,0.61051 l 10.25117,3.61691 a 0.3118053,0.3118053 0 1 0 0.20749,-0.58808 l -10.25117,-3.61691 a 0.30863841,0.30863841 0 0 0 -0.0636,-0.0224 z" display="inline" overflow="visible" visibility="visible" fill="#000000" fill-opacity="1" stroke="none" marker="none"></path><path style="color:#000000;text-indent:0;text-decoration-line:none;text-transform:none;direction:ltr;block-progression:tb;baseline-shift:baseline;enable-background:accumulate;" d="m 118.16386,989.00632 a 0.30863841,0.30863841 0 0 0 -0.1383,0.59459 l 10.25118,3.61691 a 0.30863841,0.30863841 0 1 0 0.20187,-0.57216 l -10.25118,-3.61691 a 0.30863841,0.30863841 0 0 0 -0.0636,-0.0224 z" display="inline" overflow="visible" visibility="visible" fill="#000000" fill-opacity="1" stroke="none" marker="none"></path><path style="color:#000000;text-indent:0;text-decoration-line:none;text-transform:none;direction:ltr;block-progression:tb;baseline-shift:baseline;enable-background:accumulate;" d="m 117.43113,990.98174 a 0.30863841,0.30863841 0 0 0 -0.10651,0.6058 l 10.25118,3.61692 a 0.30863841,0.30863841 0 1 0 0.20187,-0.57216 l -10.25118,-3.61691 a 0.30863841,0.30863841 0 0 0 -0.0954,-0.0337 z" display="inline" overflow="visible" visibility="visible" fill="#000000" fill-opacity="1" stroke="none" marker="none"></path><path style="color:#000000;text-indent:0;text-decoration-line:none;text-transform:none;direction:ltr;block-progression:tb;baseline-shift:baseline;enable-background:accumulate;" d="m 116.73019,992.96838 a 0.30863841,0.30863841 0 0 0 -0.10651,0.6058 l 6.67518,2.3552 a 0.30863841,0.30863841 0 1 0 0.20188,-0.57216 l -6.67519,-2.3552 a 0.30863841,0.30863841 0 0 0 -0.0954,-0.0336 z" display="inline" overflow="visible" visibility="visible" fill="#000000" fill-opacity="1" stroke="none" marker="none"></path><path style="color:#000000;text-indent:0;text-decoration-line:none;text-transform:none;direction:ltr;block-progression:tb;baseline-shift:baseline;enable-background:accumulate;" d="m 104.43862,986.96593 c -0.47807,0.10126 -0.78314,0.59362 -0.67671,1.09364 l 0.3138,1.48141 c 0.0894,0.42015 0.44469,0.71839 0.83882,0.74384 l -1.12252,2.75745 -2.00728,0.43235 c -0.47807,0.10126 -0.77654,0.59228 -0.67012,1.09224 l 0.31525,1.48828 c 0.10636,0.50008 0.58404,0.82713 1.062,0.72534 l 2.32998,-0.5007 c 0.47807,-0.10127 0.78314,-0.59362 0.67671,-1.09364 l -0.31525,-1.48827 c -0.0899,-0.42248 -0.44759,-0.71458 -0.84395,-0.73554 l 1.12252,-2.7575 1.54113,-0.32644 1.87339,2.08691 c -0.45031,0.12295 -0.72686,0.59929 -0.62401,1.08248 l 0.31524,1.48827 c 0.10635,0.50003 0.58258,0.82023 1.06054,0.71844 l 2.32485,-0.49245 c 0.47807,-0.10127 0.78973,-0.59502 0.68329,-1.09503 l -0.31524,-1.48828 c -0.10635,-0.50003 -0.59722,-0.82434 -1.07516,-0.7225 l -1.84408,0.39061 -1.8734,-2.08691 c 0.44364,-0.1287 0.71796,-0.60882 0.61597,-1.08799 l -0.31378,-1.48137 c -0.10635,-0.50003 -0.5826,-0.82027 -1.06054,-0.71843 l -2.33144,0.49384 z m 0.12405,0.58564 2.33144,-0.49384 c 0.1766,-0.0376 0.33882,0.0735 0.37814,0.25828 l 0.31379,1.48142 c 0.0393,0.18472 -0.0644,0.35173 -0.24095,0.38935 l -2.33145,0.49385 c -0.17659,0.0376 -0.3388,-0.0735 -0.37812,-0.25823 l -0.3138,-1.48141 c -0.0393,-0.18473 0.0644,-0.35179 0.24095,-0.38942 z m 4.489,4.98131 2.32485,-0.49245 c 0.1766,-0.0376 0.34541,0.0721 0.38473,0.25688 l 0.31523,1.48822 c 0.0393,0.18484 -0.0709,0.35324 -0.24752,0.39086 l -2.32485,0.49245 c -0.1766,0.0376 -0.33736,-0.0666 -0.37668,-0.25137 l -0.31524,-1.48827 c -0.0393,-0.18478 0.0629,-0.3587 0.23948,-0.39632 z m -4.80633,1.02523 c 0.17658,-0.0377 0.33881,0.0735 0.37813,0.25823 l 0.31525,1.48827 c 0.0393,0.18473 -0.0644,0.35174 -0.24096,0.38936 l -2.32999,0.50071 c -0.17659,0.0376 -0.33882,-0.0735 -0.37814,-0.25828 l -0.31523,-1.48822 c -0.0393,-0.18479 0.0643,-0.35184 0.24093,-0.38947 l 2.32999,-0.5007 z" display="inline" overflow="visible" visibility="visible" fill="#000000" fill-opacity="1" stroke="none" marker="none"></path><path style="color:#000000;text-indent:0;text-decoration-line:none;text-transform:none;direction:ltr;block-progression:tb;baseline-shift:baseline;enable-background:accumulate;" d="m 113.57645,998.66985 -1.85463,4.02715 -1.89064,4.1097 -1.85463,4.0271 4.4927,-0.4682 4.58672,-0.4712 4.49524,-0.463 -2.64061,-3.5642 -2.69352,-3.6331 -2.64062,-3.56418 z" display="inline" overflow="visible" visibility="visible" fill="#000000" fill-opacity="1" fill-rule="nonzero" stroke="none" marker="none"></path><path style="color:#000000;text-indent:0;text-decoration-line:none;text-transform:none;direction:ltr;block-progression:tb;baseline-shift:baseline;enable-background:accumulate;" d="m 120.40211,1003.4886 -1.07369,2.367 -1.09452,2.4156 -1.07369,2.367 2.60813,-0.2717 2.66254,-0.2752 2.6095,-0.2697 -1.53591,-2.0982 -1.56668,-2.1388 -1.53591,-2.0982 z" display="inline" overflow="visible" visibility="visible" fill="#000000" fill-opacity="1" fill-rule="nonzero" stroke="none" marker="none"></path><path style="color:#000000;text-indent:0;text-decoration-line:none;text-transform:none;direction:ltr;block-progression:tb;baseline-shift:baseline;enable-background:accumulate;" d="m 108.327,999.69694 c -1.12816,0.11497 -2.22666,1.07036 -2.08548,2.45576 0.14119,1.3854 1.40953,2.0964 2.53769,1.9814 1.12816,-0.1149 2.22997,-1.0675 2.08878,-2.4529 -0.14119,-1.3854 -1.41283,-2.09924 -2.54099,-1.98426 z" display="inline" overflow="visible" visibility="visible" fill="#000000" fill-opacity="1" fill-rule="nonzero" stroke="none" marker="none"></path><path style="color:#000000;text-indent:0;text-decoration-line:none;text-transform:none;direction:ltr;block-progression:tb;baseline-shift:baseline;enable-background:accumulate;" d="m 51.572598,998.4071 c -0.486575,-0.0452 -0.924056,0.33438 -0.970857,0.84345 l -0.140129,1.50775 c -0.03933,0.4278 0.211382,0.8181 0.580196,0.9594 l -1.890508,2.2999 -2.045135,-0.1831 c -0.486577,-0.045 -0.917359,0.3351 -0.964155,0.8441 l -0.140777,1.5148 c -0.04689,0.5091 0.312171,0.9632 0.798797,1.0079 l 2.373594,0.2135 c 0.486576,0.045 0.924056,-0.3343 0.970857,-0.8434 l 0.140778,-1.5148 c 0.03955,-0.4301 -0.215283,-0.8152 -0.587553,-0.9529 l 1.890514,-2.2999 1.568557,0.1457 1.169421,2.549 c -0.466513,-0.016 -0.872005,0.3565 -0.917231,0.8484 l -0.140778,1.5148 c -0.04688,0.5091 0.312826,0.9562 0.79945,1.0009 l 2.366243,0.2199 c 0.486573,0.045 0.930759,-0.3338 0.977561,-0.8428 l 0.140778,-1.5148 c 0.04688,-0.5091 -0.325579,-0.9645 -0.812209,-1.0091 l -1.876906,-0.1744 -1.169422,-2.549 c 0.461843,0.01 0.86633,-0.3682 0.911182,-0.8561 l 0.140124,-1.50773 c 0.04688,-0.50906 -0.312821,-0.95625 -0.799451,-1.00088 l -2.372946,-0.22054 z m -0.0554,0.59607 2.372946,0.22053 c 0.17979,0.0165 0.30171,0.17082 0.284419,0.35889 l -0.14013,1.50781 c -0.01729,0.1881 -0.165884,0.3168 -0.345679,0.3003 l -2.372946,-0.2206 c -0.17979,-0.017 -0.301713,-0.1707 -0.284424,-0.3588 l 0.14013,-1.5078 c 0.01729,-0.18807 0.165889,-0.31682 0.345684,-0.30033 z m 2.807879,6.08933 2.366243,0.2199 c 0.179791,0.017 0.308411,0.1715 0.291122,0.3596 l -0.140773,1.5147 c -0.0173,0.1881 -0.172597,0.3162 -0.352393,0.2997 l -2.366243,-0.2199 c -0.17979,-0.016 -0.302363,-0.1638 -0.285072,-0.3518 l 0.140778,-1.5148 c 0.0173,-0.1881 0.166543,-0.3239 0.346338,-0.3074 z m -4.894011,-0.4478 c 0.179801,0.017 0.301714,0.1708 0.284425,0.3589 l -0.140778,1.5147 c -0.01729,0.1881 -0.165885,0.3168 -0.34568,0.3003 l -2.373594,-0.2135 c -0.179796,-0.016 -0.30171,-0.1709 -0.28442,-0.3589 l 0.140773,-1.5147 c 0.0173,-0.1882 0.165894,-0.3169 0.345691,-0.3004 l 2.373593,0.2135 z" display="inline" overflow="visible" visibility="visible" fill="#000000" fill-opacity="1" stroke="none" marker="none"></path><path style="color:#000000;text-indent:0;text-decoration-line:none;text-transform:none;direction:ltr;block-progression:tb;baseline-shift:baseline;enable-background:accumulate;" d="m 61.369454,999.9872 a 0.31362099,0.31362099 0 0 0 0.169145,0.604 l 10.722267,-1.78934 a 0.31180817,0.31180817 0 1 0 -0.10265,-0.61511 l -10.722264,1.78935 a 0.30863841,0.30863841 0 0 0 -0.0665,0.0111 z" display="inline" overflow="visible" visibility="visible" fill="#000000" fill-opacity="1" stroke="none" marker="none"></path><path style="color:#000000;text-indent:0;text-decoration-line:none;text-transform:none;direction:ltr;block-progression:tb;baseline-shift:baseline;enable-background:accumulate;" d="m 61.716237,1002.0652 a 0.3136216,0.3136216 0 1 0 0.169141,0.604 l 10.722264,-1.7894 a 0.31180463,0.31180463 0 0 0 -0.10265,-0.6151 l -10.722264,1.7894 a 0.30863841,0.30863841 0 0 0 -0.06649,0.011 z" display="inline" overflow="visible" visibility="visible" fill="#000000" fill-opacity="1" stroke="none" marker="none"></path><path style="color:#000000;text-indent:0;text-decoration-line:none;text-transform:none;direction:ltr;block-progression:tb;baseline-shift:baseline;enable-background:accumulate;" d="m 62.063013,1004.1432 a 0.30863841,0.30863841 0 0 0 0.166364,0.5873 l 10.722262,-1.7893 a 0.30863841,0.30863841 0 1 0 -0.09987,-0.5985 l -10.722265,1.7894 a 0.30863841,0.30863841 0 0 0 -0.06649,0.011 z" display="inline" overflow="visible" visibility="visible" fill="#000000" fill-opacity="1" stroke="none" marker="none"></path><path style="color:#000000;text-indent:0;text-decoration-line:none;text-transform:none;direction:ltr;block-progression:tb;baseline-shift:baseline;enable-background:accumulate;" d="m 62.37653,1006.2266 a 0.30863841,0.30863841 0 0 0 0.199614,0.5819 l 10.722264,-1.7894 a 0.30863841,0.30863841 0 1 0 -0.09987,-0.5984 l -10.722264,1.7893 a 0.30863841,0.30863841 0 0 0 -0.09975,0.017 z" display="inline" overflow="visible" visibility="visible" fill="#000000" fill-opacity="1" stroke="none" marker="none"></path><path style="color:#000000;text-indent:0;text-decoration-line:none;text-transform:none;direction:ltr;block-progression:tb;baseline-shift:baseline;enable-background:accumulate;" d="m 62.723302,1008.3046 a 0.30863841,0.30863841 0 0 0 0.199613,0.5818 l 6.981937,-1.1652 a 0.30863841,0.30863841 0 1 0 -0.09987,-0.5984 l -6.981942,1.1651 a 0.30863841,0.30863841 0 0 0 -0.09974,0.017 z" display="inline" overflow="visible" visibility="visible" fill="#000000" fill-opacity="1" stroke="none" marker="none"></path><path style="opacity:1;fill:#000000;fill-opacity:1;stroke:none;stroke-width:1.51801085;stroke-linecap:round;stroke-linejoin:round;stroke-miterlimit:4;stroke-dasharray:none;stroke-dashoffset:0;stroke-opacity:1" d="m 39.160156,23.845703 c -3.663787,0 -6.708984,3.045185 -6.708984,6.708985 l 0,2.908203 -27.2675782,0 c -2.0723549,0 -3.7402344,1.667879 -3.7402344,3.740234 l 0,51.876953 c 0,2.072355 1.6678795,3.740234 3.7402344,3.740234 l 90.6992182,0 c 2.072355,0 3.740235,-1.667879 3.740235,-3.740234 l 0,-51.876953 c 0,-2.072355 -1.66788,-3.740234 -3.740235,-3.740234 l -32.466796,0 0,-2.908203 c 0,-3.663801 -3.045197,-6.708985 -6.708985,-6.708985 l -17.546875,0 z m 0,6.148438 17.546875,0 c 0.364169,0 0.5625,0.196446 0.5625,0.560547 l 0,2.908203 -18.669922,0 0,-2.908203 c 0,-0.364101 0.196378,-0.560547 0.560547,-0.560547 z" transform="translate(35.231976,974.30971)"></path><path style="color:#000000;font-style:normal;font-variant:normal;font-weight:normal;font-stretch:normal;font-size:medium;line-height:normal;font-family:sans-serif;text-indent:0;text-align:start;text-decoration:none;text-decoration-line:none;text-decoration-style:solid;text-decoration-color:#000000;letter-spacing:normal;word-spacing:normal;text-transform:none;direction:ltr;block-progression:tb;writing-mode:lr-tb;baseline-shift:baseline;text-anchor:start;white-space:normal;clip-rule:nonzero;display:inline;overflow:visible;visibility:visible;opacity:1;isolation:auto;mix-blend-mode:normal;color-interpolation:sRGB;color-interpolation-filters:linearRGB;solid-color:#000000;solid-opacity:1;fill:#000000;fill-opacity:1;fill-rule:nonzero;stroke:none;stroke-width:0.90922636;stroke-linecap:round;stroke-linejoin:round;stroke-miterlimit:4;stroke-dasharray:none;stroke-dashoffset:0;stroke-opacity:1;color-rendering:auto;image-rendering:auto;shape-rendering:auto;text-rendering:auto;enable-background:accumulate" d="m 90.653576,976.28375 c -0.367717,-1.40289 -1.812784,-2.25211 -3.217313,-1.89071 l -15.046968,3.87172 c -1.40453,0.3614 -2.249934,1.79998 -1.882218,3.20287 l 2.488934,9.49563 c 0.367717,1.40288 1.812287,2.25021 3.216816,1.88881 l 15.046968,-3.87172 c 1.40453,-0.3614 2.250431,-1.79808 1.882715,-3.20097 l -2.488934,-9.49563 z m -0.881448,0.22681 2.488934,9.49562 c 0.243989,0.93086 -0.299596,1.85585 -1.23154,2.09564 l -15.046967,3.87173 c -0.931944,0.23979 -1.862994,-0.30576 -2.106984,-1.23661 l -2.488934,-9.49563 c -0.24399,-0.93085 0.301484,-1.85633 1.233428,-2.09613 l 15.046967,-3.87172 c 0.931944,-0.2398 1.861106,0.30624 2.105096,1.2371 z"></path><path style="color:#000000;text-indent:0;text-decoration-line:none;text-transform:none;direction:ltr;block-progression:tb;baseline-shift:baseline;enable-background:accumulate;" d="m 79.326676,978.46227 -1.054259,3.58555 -1.074184,3.65884 -1.054259,3.58555 3.689745,-0.93999 3.767795,-0.95402 3.69251,-0.93595 -2.638265,-2.64965 -2.690804,-2.70062 -2.638264,-2.64965 z" display="inline" overflow="visible" visibility="visible" fill="#000000" fill-opacity="1" fill-rule="nonzero" stroke="none" marker="none"></path><path style="color:#000000;text-indent:0;text-decoration-line:none;text-transform:none;direction:ltr;block-progression:tb;baseline-shift:baseline;enable-background:accumulate;" d="m 85.608799,981.64639 -0.605976,2.10546 -0.617418,2.1485 -0.605976,2.10547 2.142008,-0.54561 2.186969,-0.55512 2.143394,-0.54412 -1.537613,-1.56212 -1.568237,-1.59218 -1.537611,-1.56211 z" display="inline" overflow="visible" visibility="visible" fill="#000000" fill-opacity="1" fill-rule="nonzero" stroke="none" marker="none"></path><path style="color:#000000;text-indent:0;text-decoration-line:none;text-transform:none;direction:ltr;block-progression:tb;baseline-shift:baseline;enable-background:accumulate;" d="m 75.074135,979.96093 c -0.92685,0.23388 -1.726177,1.16506 -1.438979,2.30324 0.287206,1.13821 1.43198,1.57606 2.358831,1.34218 0.926849,-0.23387 1.729284,-1.16305 1.442078,-2.30126 -0.287198,-1.13818 -1.43508,-1.57803 -2.36193,-1.34416 z" display="inline" overflow="visible" visibility="visible" fill="#000000" fill-opacity="1" fill-rule="nonzero" stroke="none" marker="none"></path><path style="color:#000000;font-style:normal;font-variant:normal;font-weight:normal;font-stretch:normal;font-size:medium;line-height:normal;font-family:sans-serif;text-indent:0;text-align:start;text-decoration:none;text-decoration-line:none;text-decoration-style:solid;text-decoration-color:#000000;letter-spacing:normal;word-spacing:normal;text-transform:none;direction:ltr;block-progression:tb;writing-mode:lr-tb;baseline-shift:baseline;text-anchor:start;white-space:normal;clip-rule:nonzero;display:inline;overflow:visible;visibility:visible;opacity:1;isolation:auto;mix-blend-mode:normal;color-interpolation:sRGB;color-interpolation-filters:linearRGB;solid-color:#000000;solid-opacity:1;fill:#000000;fill-opacity:1;fill-rule:nonzero;stroke:none;stroke-width:1.07862926;stroke-linecap:round;stroke-linejoin:round;stroke-miterlimit:4;stroke-dasharray:none;stroke-dashoffset:0;stroke-opacity:1;color-rendering:auto;image-rendering:auto;shape-rendering:auto;text-rendering:auto;enable-background:accumulate" d="m 49.859383,981.0885 c -0.183638,-0.006 -0.372229,0.006 -0.5625,0.0371 l -0.002,0 -12.207031,2.04688 c -1.516747,0.25416 -2.5471,1.69752 -2.296875,3.21484 l 2.617187,15.86718 c 0.250269,1.5176 1.693975,2.5511 3.210938,2.2969 l 0.171875,-0.029 c 0.07155,-0.01 0.125263,0.059 0.197265,0.047 l 1.646485,-0.2754 -0.960938,9.498 c -0.08122,0.8041 0.216359,1.5331 0.714844,2.0957 0.453303,0.5767 1.111486,0.9833 1.896484,1.0606 l 12.31836,1.2129 c 0.416853,0.041 0.817654,-0.019 1.18164,-0.1446 1.049505,-0.3178 1.856103,-1.2406 1.972657,-2.3945 l 0.224609,-2.2246 0.433594,2.6289 c 0.128606,0.7799 0.577983,1.4241 1.177734,1.8359 0.594739,0.4864 1.390822,0.742 2.216797,0.6036 l 12.207031,-2.045 c 1.516743,-0.2541 2.549052,-1.6975 2.298828,-3.2148 L 75.69918,997.33696 c -0.0056,-0.0338 -0.04403,-0.0468 -0.05078,-0.0801 L 75.60543,997.001 c -0.181886,-1.10293 -1.061618,-1.75061 -2.074219,-2.0332 -0.005,-10e-4 -0.01057,-5.1e-4 -0.01563,-0.002 -0.376239,-0.10268 -0.712281,-0.33023 -1.121094,-0.26172 l -0.126953,0.0215 0.789063,-5.97265 c 0.225245,-1.70603 -0.981026,-3.28278 -2.685547,-3.51563 L 52.570269,982.80526 C 52.140331,981.85201 51.291862,981.145 50.232378,981.108 l -0.002,0 c -0.08991,-0.003 -0.183488,0.012 -0.275391,0.0176 -0.03498,-0.003 -0.0585,-0.0359 -0.09375,-0.0371 l -0.002,0 z m 0.05664,1.11524 c 0.751708,0.0723 1.396848,0.60127 1.527344,1.39258 l 2.042968,12.39257 -7.136718,-0.70312 c -0.767786,-0.0756 -1.494245,0.17246 -2.048829,0.62891 -0.669316,0.44925 -1.182589,1.10018 -1.269531,1.96093 l -0.53125,5.26759 -1.892578,0.3164 c -0.856193,0.036 -1.903077,-0.7723 -2.046934,-1.6446 l -2.475556,-15.44229 c -0.156082,-0.94645 0.607771,-1.95967 1.55374,-2.11819 l 12.205078,-2.04688 c 0.02416,-0.004 0.04809,-9.6e-4 0.07227,-0.004 z m 2.667968,1.6914 17.642579,2.41016 c 1.131221,0.15453 1.909146,1.17326 1.759765,2.30469 l -0.832031,6.30273 -10.966797,1.83789 c -0.09498,0.0159 -0.135572,0.11761 -0.226562,0.14258 l -0.195313,0.0312 c -0.332707,-0.19668 -0.680524,-0.38474 -1.097656,-0.42578 l -4.072266,-0.40039 -2.011719,-12.20313 z m 21.931641,11.5918 0.04687,0.0352 c -0.01066,-0.009 -0.02631,-0.0107 -0.03711,-0.0195 -0.0051,-0.003 -0.0047,-0.0122 -0.0098,-0.0156 z m -2.025391,0.47266 c 0.517131,-0.0846 1.002244,0.0692 1.375,0.38476 0.01434,0.0125 0.02934,0.0243 0.04492,0.0352 0.348004,0.23695 0.574861,0.61371 0.673828,1.05273 l 2.574219,15.61131 c 0.156056,0.9463 -0.468173,1.8181 -1.414062,1.9766 l -12.207031,2.0449 c -0.945887,0.1585 -1.812695,-0.46 -1.96875,-1.4062 L 58.95118,999.78968 c -0.139834,-0.84794 0.398618,-1.56335 1.181641,-1.83204 l 11.533203,-1.86523 0.002,0 c 0.01176,-9.5e-4 0.02349,-0.002 0.03516,-0.004 l 0.34375,-0.0566 0.443359,-0.0723 z m -26.505859,0.48437 8.113281,0.79883 c 0.116003,0.0111 0.232493,-0.0156 0.332032,-0.0762 l 4.132812,0.40625 c 0.05477,0.005 0.0938,0.0461 0.146484,0.0566 -0.08078,0.0715 -0.176272,0.12115 -0.248046,0.20117 -0.02468,0.032 -0.06656,0.0392 -0.08984,0.0723 -0.495669,0.60081 -0.819895,1.3239 -0.683594,2.15038 l 1.455078,8.8184 -0.664062,6.5722 c -0.09635,0.9539 -0.926974,1.6349 -1.88086,1.541 l -12.316406,-1.2128 c -0.438812,-0.043 -0.793383,-0.271 -1.066406,-0.5645 -0.252772,-0.3311 -0.401584,-0.7485 -0.355469,-1.2051 l 1.042969,-10.3262 c 0.01178,-0.1222 -0.01854,-0.2449 -0.08594,-0.3476 l 0.548828,-5.42969 c 0.04788,-0.47402 0.27847,-0.87723 0.613282,-1.1543 0.302049,-0.17659 0.625358,-0.33822 1.005859,-0.30078 z"></path><path style="color:#000000;font-style:normal;font-variant:normal;font-weight:normal;font-stretch:normal;font-size:medium;line-height:normal;font-family:sans-serif;text-indent:0;text-align:start;text-decoration:none;text-decoration-line:none;text-decoration-style:solid;text-decoration-color:#000000;letter-spacing:normal;word-spacing:normal;text-transform:none;direction:ltr;block-progression:tb;writing-mode:lr-tb;baseline-shift:baseline;text-anchor:start;white-space:normal;clip-rule:nonzero;display:inline;overflow:visible;visibility:visible;opacity:1;isolation:auto;mix-blend-mode:normal;color-interpolation:sRGB;color-interpolation-filters:linearRGB;solid-color:#000000;solid-opacity:1;fill:#000000;fill-opacity:1;fill-rule:nonzero;stroke:none;stroke-width:1.07863307;stroke-linecap:round;stroke-linejoin:round;stroke-miterlimit:4;stroke-dasharray:none;stroke-dashoffset:0;stroke-opacity:1;color-rendering:auto;image-rendering:auto;shape-rendering:auto;text-rendering:auto;enable-background:accumulate" d="m 133.1319,987.41086 c -0.30828,-0.64599 -0.86356,-1.17561 -1.58977,-1.43128 l -11.67591,-4.10926 c -0.36303,-0.12782 -0.73574,-0.17576 -1.09795,-0.15398 a 0.54058296,0.53815525 38.784186 0 0 -0.28527,0.10309 c -0.96398,0.16711 -1.83204,0.76999 -2.18095,1.75285 l -1.88717,5.31401 -0.70681,-3.47587 c -0.26836,-1.31886 -1.43085,-2.23766 -2.7324,-2.23455 a 0.54058296,0.53815525 38.784186 0 0 -0.0991,0.0106 0.54058296,0.53815525 38.784186 0 0 -0.01,10e-4 c -0.15003,0.006 -0.30107,0.0155 -0.45273,0.0463 a 0.54058296,0.53815525 38.784186 0 0 -0.002,2.1e-4 l -12.123935,2.50083 c -1.5061,0.31052 -2.48118,1.78854 -2.17444,3.29599 l 3.20663,15.7604 c 0.30673,1.5074 1.792025,2.4847 3.297555,2.1743 l 0.40525,-0.084 0.62443,5.6158 c 0.19014,1.7099 1.73978,2.9551 3.45057,2.7727 l 18.32967,-1.9546 c 1.7108,-0.1825 2.9485,-1.7249 2.75837,-3.4349 l -0.52838,-4.7519 a 0.54058296,0.53815525 38.784186 0 0 0.0283,-0.046 c 0.0518,-0.097 0.12218,-0.221 0.17953,-0.3826 l 5.37949,-15.15568 c 0.25697,-0.7239 0.19494,-1.4868 -0.11335,-2.13279 z m -0.96522,0.45648 c 0.18726,0.39273 0.22202,0.85874 0.0613,1.31143 l -4.7313,13.33253 -0.46406,-4.17345 c -0.19012,-1.70985 -1.73968,-2.95325 -3.45036,-2.77082 l -0.0136,10e-4 c -0.0437,0.003 -0.0739,-0.0393 -0.11782,-0.0346 l -7.51793,0.80169 -1.09894,-5.3943 2.4853,-7.00412 c 0.24091,-0.67866 0.85064,-1.10383 1.51762,-1.14393 0.22287,-0.0134 0.44898,0.0155 0.67478,0.095 l 11.67592,4.10926 c 0.45147,0.15895 0.7918,0.4771 0.97906,0.86983 z m -6.33923,10.55385 1.28684,11.57321 c 0.12616,1.1346 -0.67031,2.128 -1.80546,2.249 l -18.32967,1.9547 c -1.13515,0.121 -2.13322,-0.681 -2.25938,-1.8156 l -1.28685,-11.5732 c -0.0606,-0.5451 0.11219,-1.04788 0.41299,-1.44648 0.32437,-0.37743 0.77601,-0.65433 1.31997,-0.71234 l 10.41168,-1.11027 a 0.54058296,0.53815525 38.784186 0 0 0.1845,-0.055 l 7.92771,-0.84539 c 1.0784,-0.0468 2.01652,0.69186 2.13767,1.78139 z m -10.98403,-1.96941 -9.72222,1.03675 c -0.87734,0.0936 -1.61031,0.55526 -2.11041,1.20321 -0.52699,0.6279 -0.82224,1.44186 -0.72457,2.32036 l 0.53486,4.8102 -0.42662,0.087 c -0.94008,0.1938 -1.82543,-0.3893 -2.0166,-1.3288 l -3.206625,-15.76039 c -0.19116,-0.93944 0.40092,-1.83682 1.34044,-2.03052 l 12.122205,-2.49869 0.002,-2.1e-4 c 0.11702,-0.0236 0.23158,-0.0366 0.3457,-0.0369 0.79721,-0.002 1.50189,0.54564 1.66918,1.36781 l 1.07801,5.2944 a 0.54058296,0.53815525 38.784186 0 0 0.0101,0.10891 l 1.10456,5.42709 z"></path></g></svg>